<?xml version="1.0" encoding="utf-8"?>
<!-- Generator: Adobe Illustrator 19.0.1, SVG Export Plug-In . SVG Version: 6.00 Build 0)  -->
<svg version="1.1" id="Capa_1" xmlns="http://www.w3.org/2000/svg" xmlns:xlink="http://www.w3.org/1999/xlink" x="0px" y="0px"
	 viewBox="0 91 612 612" style="enable-background:new 0 91 612 612;" xml:space="preserve">
<style type="text/css">
	.st0{fill:#FFFFFF;}
</style>
<g>
	<g id="Error">
		<g>
			<path class="st0" d="M420.5,309.8c-0.3-6.9-2.9-13.8-8.2-19.1c-5.3-5.3-12.2-7.9-19.1-8.2c-7.7-0.3-15.5,2.3-21.4,8.2L306,356.4
				l-65.8-65.8c-5.9-5.9-13.7-8.5-21.4-8.2c-6.9,0.3-13.8,2.9-19.1,8.2c-5.3,5.3-7.9,12.2-8.2,19.1c-0.3,7.7,2.3,15.5,8.2,21.4
				l65.8,65.8l-65.8,65.8c-5.9,5.9-8.5,13.7-8.2,21.4c0.3,6.9,2.9,13.8,8.2,19.1c5.3,5.3,12.2,7.9,19.1,8.2
				c7.7,0.3,15.5-2.3,21.4-8.2l65.8-65.8l65.8,65.8c5.9,5.9,13.7,8.5,21.4,8.2c6.9-0.3,13.8-2.9,19.1-8.2c5.3-5.3,7.9-12.2,8.2-19.1
				c0.3-7.7-2.3-15.5-8.2-21.4L346.6,397l65.8-65.8C418.2,325.3,420.8,317.5,420.5,309.8z M306,91C137,91,0,228,0,397
				s137,306,306,306s306-137,306-306S475,91,306,91z M306,645.6C168.9,645.6,57.4,534.1,57.4,397S168.9,148.4,306,148.4
				S554.6,259.9,554.6,397S443.1,645.6,306,645.6z"/>
		</g>
	</g>
</g>
</svg>
