<?xml version="1.0" encoding="utf-8"?>
<!-- Generator: Adobe Illustrator 19.0.1, SVG Export Plug-In . SVG Version: 6.00 Build 0)  -->
<svg version="1.1" id="Capa_1" xmlns="http://www.w3.org/2000/svg" xmlns:xlink="http://www.w3.org/1999/xlink" x="0px" y="0px"
	 viewBox="0 91 612 612" style="enable-background:new 0 91 612 612;" xml:space="preserve">
<style type="text/css">
	.st0{fill:#FFFFFF;}
</style>
<g>
	<g id="Right">
		<g>
			<path class="st0" d="M334.4,523.3L334.4,523.3c5.2,4.6,11.9,7.6,19.4,7.6c15.8,0,28.7-12.9,28.7-28.7c0-8.4-3.6-15.8-9.4-21.1
				l0.1-0.1l-91.7-84l91.7-84.1l-0.1-0.1c5.7-5.2,9.4-12.7,9.4-21.1c0-15.8-12.9-28.7-28.7-28.7c-7.5,0-14.2,2.9-19.3,7.6l-0.1-0.1
				L219.7,375.8c-5.9,5.5-9.3,13.1-9.3,21.2s3.4,15.7,9.3,21.2L334.4,523.3z M306,703c169,0,306-137,306-306S475,91,306,91
				S0,228,0,397S137,703,306,703z M306,148.4c137.1,0,248.6,111.5,248.6,248.6S443.1,645.6,306,645.6S57.4,534.1,57.4,397
				S168.9,148.4,306,148.4z"/>
		</g>
	</g>
</g>
</svg>
